<?xml version="1.0" encoding="UTF-8" standalone="no"?>
<svg
   xmlns:dc="http://purl.org/dc/elements/1.1/"
   xmlns:cc="http://creativecommons.org/ns#"
   xmlns:rdf="http://www.w3.org/1999/02/22-rdf-syntax-ns#"
   xmlns:svg="http://www.w3.org/2000/svg"
   xmlns="http://www.w3.org/2000/svg"
   viewBox="0 0 972.25336 882.38666"
   height="882.38666"
   width="972.25336"
   xml:space="preserve"
   id="svg2"
   version="1.1"><metadata
     id="metadata8"><rdf:RDF><cc:Work
         rdf:about=""><dc:format>image/svg+xml</dc:format><dc:type
           rdf:resource="http://purl.org/dc/dcmitype/StillImage" /></cc:Work></rdf:RDF></metadata><defs
     id="defs6" /><g
     transform="matrix(1.3333333,0,0,-1.3333333,0,882.38667)"
     id="g10"><g
       transform="scale(0.1)"
       id="g12"><path
         id="path14"
         style="fill:#ffffff;fill-opacity:1;fill-rule:nonzero;stroke:none"
         d="m 5665.98,5045.56 c 47.66,7.68 92.83,-0.01 134.33,-17.52 68.67,-28.98 128.58,-71.28 172.48,-133.67 19.69,-27.99 37.97,-57.52 47.48,-89.49 10.17,-34.2 23.27,-68.5 20.64,-106.29 -2.92,-41.78 2.89,-84.28 -9.43,-125.28 -17.45,-58.11 -45.24,-110.96 -87.51,-154.7 -26.19,-27.1 -52.52,-54.02 -83.13,-77.17 -18.44,-13.95 -34.78,-33.19 -51.2,-50.81 -19.93,-21.38 -41.69,-40.61 -63.35,-60.05 -54.41,-48.82 -107.23,-99.28 -159.65,-150.27 -54.59,-53.11 -110.8,-104.78 -167.81,-155.18 -31.71,-28.03 -63.27,-56.84 -93.58,-85.95 -40.09,-38.51 -83.03,-74.08 -121.38,-114.57 -23.43,-24.75 -52.83,-43.83 -76.47,-68.42 -14.16,-14.73 -28.26,-30.68 -43.28,-43.57 -26.97,-23.12 -54.13,-46.03 -78.52,-71.72 -38.34,-40.39 -83.36,-73.19 -122.8,-112.59 -65.07,-65 -136.56,-123.45 -202.33,-187.94 -20.3,-19.9 -40.19,-40.36 -61.86,-58.69 -41.33,-34.95 -79.85,-72.92 -118.95,-110.19 -31.35,-29.9 -64.51,-57.73 -95.57,-88 -49.6,-48.31 -101.84,-93.91 -152.75,-140.89 -27.21,-25.1 -53.95,-50.7 -80.95,-76.04 -33.7,-31.63 -67.71,-62.94 -101.12,-94.89 -39.73,-38 -82.73,-72.27 -121.22,-111.87 -41.28,-42.46 -87.44,-80.15 -130.97,-120.47 -34.45,-31.9 -66.98,-65.98 -102.71,-96.33 -15.61,-13.27 -31.06,-27.36 -45.39,-41.35 -36.81,-35.92 -76.11,-69.22 -111.71,-106.41 -19.43,-20.3 -43.24,-35.76 -62.48,-56.65 -20.99,-22.8 -43.5,-45.25 -67.55,-63.93 -39.27,-30.49 -72.43,-67.22 -109.06,-100.13 -27.27,-24.5 -55.76,-48.32 -81.84,-74.56 -38.26,-38.48 -79.79,-73.69 -118.43,-111.81 -31.99,-31.56 -68.74,-57.81 -100.02,-89.63 -18.95,-19.29 -40.2,-36.39 -57.53,-57.54 -6.86,-8.37 -17.35,-14.6 -26.03,-22.04 -34.77,-29.81 -67.28,-61.9 -99.07,-94.84 -11.75,-12.18 -26.38,-21.52 -38.98,-32.96 -14.89,-13.53 -29.24,-27.67 -43.38,-41.98 -31.4,-31.77 -68.68,-57.01 -98.78,-90.31 -31.86,-35.22 -70.42,-63.32 -104.74,-95.83 -78.72,-74.59 -160.1,-150.74 -240.65,-224.8 -14.72,-13.53 -30.13,-26.87 -43.98,-40.851 -28.4,-28.66 -61.14,-64.539 -100.9,-76.41 -4.84,-1.449 -9.81,-2.418 -14.79,-3.27 -44.02,-7.539 -93.63,-9.07 -135.83,7.403 -29.72,11.589 -53.4,32.48 -73.33,56.609 -39.27,47.539 -42.32,113.519 -30.72,171.489 5.89,29.45 23.14,54.82 41.55,77.9 13.27,16.63 27.34,33.54 42.44,47.02 36.51,32.6 65.43,71.52 98.73,106.63 36.07,38.02 74.58,73.7 109.43,112.97 32.9,37.07 71.89,69.62 101.14,108.57 33.42,44.49 77.96,77.42 110.99,121.95 15.73,21.2 36.94,40.74 58.21,58.84 11.69,9.95 21.92,24.64 32.23,37.66 33.11,41.81 74.53,75.84 109.23,115.87 35.33,40.77 73.61,78.82 107.77,120.76 29.14,35.79 65.23,65.85 95.54,100.78 45.32,52.24 93.9,101.44 140.44,152.5 33.13,36.33 66.41,72.9 101.29,107.84 13.1,13.13 25.02,29.17 38.16,42.37 52.89,53.11 100.68,110.87 153.27,164.21 17.32,17.56 31.72,38.74 49.18,55.58 59.05,56.97 109.71,121.65 168.5,178.76 21.21,20.59 38.69,45 59.72,65.8 54.73,54.12 103.49,113.74 157.51,168.57 50.88,51.63 97.35,107.6 147.86,159.62 19.47,20.05 37.04,41.77 57.08,61.36 21.98,21.49 39.72,47.98 61.89,68.65 63.1,58.8 115.85,126.96 176.35,188.06 34.22,34.56 68.82,69.29 99.75,106.98 27.46,33.46 58.61,63.18 88.19,94.51 13.3,14.08 23.3,32.47 37.07,44.75 30.02,26.76 56.26,56.77 83.13,86.17 42.01,45.97 85.24,90.73 127.96,136 45.79,48.52 89.59,98.91 134.84,147.94 27,29.25 56.73,56.12 82.2,86.6 16.78,20.07 35.8,37.68 53.08,57.05 53.72,60.21 109.24,118.7 164.7,177.3 65.62,69.34 130.54,139.36 194.97,209.82 66.28,72.49 133.82,143.75 202.21,214.23 38.37,39.55 81.36,72.43 133.55,90.51 44.45,15.41 90.2,27.21 136.64,18.23" /><path
         id="path16"
         style="fill:#ffffff;fill-opacity:1;fill-rule:nonzero;stroke:none"
         d="m 4941.01,5699.49 c 65.77,2.97 125.93,-14.94 183.83,-45.48 72.57,-38.28 123.61,-96.68 158.49,-168.65 17.64,-36.39 26.37,-76.74 31.69,-117.95 4.74,-36.69 1.18,-72.21 -2.56,-107.94 -4.1,-39.13 -19.22,-75.28 -36.82,-110.28 -24.31,-48.35 -60.97,-85.94 -100.64,-122.1 -30.73,-28.01 -58.42,-59.77 -90.37,-86.43 -44.55,-37.18 -82.55,-81.14 -126.9,-118.38 -32.83,-27.57 -60.06,-62 -93.14,-87.97 -49.63,-38.96 -89.97,-87.58 -140.68,-125.17 -27.44,-20.34 -49.43,-48.02 -73.95,-72.32 -26.47,-26.22 -56.53,-48.34 -83.38,-74.25 -36.62,-35.32 -75.47,-68.68 -111.55,-104.23 -58.28,-57.41 -119.82,-111.18 -178.94,-167.59 -78.69,-75.08 -159.76,-147.67 -238.5,-222.76 -55.73,-53.15 -113.96,-103.67 -169.84,-156.66 -52.4,-49.68 -106.2,-97.9 -158.77,-147.35 -54.27,-51.05 -109.18,-101.66 -163.79,-152.47 -57.3,-53.31 -117.19,-103.84 -171.74,-160.09 -27.27,-28.12 -60.44,-49.32 -88.63,-76.57 -68.24,-65.98 -137.6,-130.81 -206.87,-195.71 -70.61,-66.17 -141.11,-132.46 -212.79,-197.45 -25.68,-23.3 -47.68,-51.13 -74.36,-71.96 -67.89,-53.01 -124.02,-118.36 -189.93,-173.22 -21.18,-17.62 -39.06,-39.14 -59.43,-57.82 -12.86,-11.8 -27.51,-21.42 -40.36,-33.61 -36.09,-34.24 -70.28,-70.53 -108.66,-102.35 -102.04,-84.59 -199.09,-180.92 -294.87,-273.84 -26.85,-26.04 -56.83,-48.81 -82.63,-75.72 -26.32,-27.46 -53.36,-55.07 -83.3,-78.63 -25.17,-19.82 -47.22,-42.87 -70.7,-64.29 -44.05,-40.19 -89,-79.46 -130.67,-122.43 -40.05,-41.29 -82.06,-83.96 -124.84,-122.28 -68.02,-60.93 -144.86,-125.55 -242.74,-102.2 -43.78,10.45 -83.33,37.28 -109.97,73.48 -45.98,62.47 -44.1,165.91 3.17,227.2 39.68,51.45 85.2,103.13 132.36,147.88 31.32,29.7 58.25,63.36 87.21,95.12 27.63,30.3 57.25,59.24 84.63,89.83 37.95,42.39 80.98,79.94 115.63,125.58 19.77,26.04 44.62,48.41 68.09,71.26 24.92,24.26 44.31,53.16 70.02,76.52 29.62,26.92 53.25,59.52 80.41,88.53 24.42,26.07 52.41,50.15 75.55,76.9 23.53,27.2 48.59,52.96 72.52,79.73 38.86,43.47 78.45,86.3 118.24,128.92 43.43,46.53 89.11,91.07 130.75,139.12 51.23,59.12 104.82,116.19 158.83,172.44 41.23,42.95 81.92,86.83 122.01,130.59 62.47,68.19 129.6,131.98 189.7,202.41 24.59,28.81 53.45,54.54 77.57,83.43 50.37,60.35 109.14,112.66 158.81,173.69 38.07,46.77 82.52,88.32 123.6,132.69 25.8,27.88 50.03,57.22 75.98,84.95 52.06,55.65 105.18,110.3 157.17,166.01 42.48,45.51 83.77,92.13 125.94,137.93 31.57,34.3 64.23,67.6 95.4,102.25 21.49,23.89 43.76,46.87 66.82,69.25 15.63,15.15 28.02,33.57 42.92,49.54 47.33,50.76 95.46,100.77 142.7,151.61 43.84,47.19 86.65,95.34 130.43,142.59 71.34,76.99 143.51,153.2 214.52,230.49 45.61,49.64 93.37,97.4 137.88,147.83 41.59,47.14 87.44,90.28 126.82,139.61 22.45,28.11 52.18,51.08 76.32,77.71 31.42,34.65 62.75,69.52 94.3,104.16 38.67,42.44 75.28,86.91 124.6,118.11 63.36,40.07 131.67,62.5 207.41,58.79" /><path
         id="path18"
         style="fill:#ffffff;fill-opacity:1;fill-rule:nonzero;stroke:none"
         d="m 2903.65,724.48 c -0.07,13.18 1.25,26.45 4.07,39.583 14.73,68.468 73.34,119.707 118.87,169.296 48.58,52.911 97.8,105.321 145.71,158.741 33.84,37.74 68.73,74.79 101.14,113.95 26.76,32.35 58.04,60.62 86.01,92.06 47.41,53.3 94.68,106.85 145.61,156.98 21.53,21.2 39.47,45.88 60.16,67.68 25.25,26.61 49.95,53.98 74.77,80.85 23.89,25.87 50.77,49.54 71.34,78.21 17.98,25.05 41.76,44.29 61.21,67.69 41.27,49.67 89.91,92.67 129.32,144.15 15.54,20.3 35.57,37.14 53.25,55.83 30.93,32.68 61.07,66.12 91.56,99.18 64.91,70.4 129.8,140.86 194.08,211.81 36.51,40.3 74.89,79.01 109.6,121.05 20.47,24.78 46,45.47 65.67,70.78 36.24,46.62 79.19,86.98 118.72,130.42 37.65,41.37 73.39,84.61 113.73,123.72 27.83,26.99 49.67,60.2 77.76,86.87 43.09,40.92 79.81,87.5 120.33,130.61 42.65,45.39 86.63,89.92 125.61,138.94 21.74,27.34 51.08,48.68 72.45,76.24 34.11,44.01 77.7,79.04 111.14,123.68 19.92,26.6 45.63,48.81 68.29,73.41 53.23,57.79 107.42,114.85 159.08,173.89 41.77,47.73 85.47,93.76 127.8,140.89 46.63,51.91 93.66,103.73 142.32,153.97 52.53,54.23 100.65,112.7 152.33,167.78 46.47,49.53 104.47,82.88 168.93,102.03 51.3,15.23 105.83,16.36 158.4,9.14 61.8,-8.49 118.39,-32.08 170.15,-70.12 52.43,-38.52 91.27,-87.05 117.89,-143.9 17.28,-36.91 28.12,-77.56 31.31,-120.21 2.63,-35.02 0.82,-69.37 -2.81,-103.54 -3.55,-33.46 -16.38,-64.91 -29.97,-96.11 -29.62,-68.01 -83.97,-114.92 -135.82,-163.8 -64.19,-60.5 -130.54,-118.7 -195.03,-178.89 -39.82,-37.16 -79.1,-75.47 -120.58,-110.16 -41.78,-34.96 -77.53,-76.22 -121.48,-108.83 -27.76,-20.6 -48.36,-50.71 -75.71,-72.02 -50.34,-39.22 -92.57,-86.97 -140.88,-128.35 -35.45,-30.37 -71.68,-60.45 -104.21,-94.04 -24.59,-25.39 -51.1,-48.35 -78.03,-70.87 -20.37,-17.02 -37.53,-37.15 -57.78,-54.37 -36.77,-31.28 -70.6,-65.98 -106.69,-98.08 -33.84,-30.11 -64.81,-63.81 -100.02,-91.68 -44.28,-35.06 -79.86,-79.19 -126.11,-112.1 -26.49,-18.85 -46.14,-47.05 -71.57,-67.73 -44.84,-36.47 -85.09,-77.9 -127.42,-116.91 -47.3,-43.6 -97.86,-83.75 -142.18,-130.66 -26.81,-28.37 -59.06,-50.78 -86.71,-78.56 -45.62,-45.82 -96.01,-86.67 -143,-131.2 -30.08,-28.49 -58.06,-60.42 -90.74,-84.64 -50.86,-37.71 -88.92,-88.78 -141.07,-124.79 -19.06,-13.16 -33.25,-34.17 -51.3,-50.08 -30.44,-26.82 -60.13,-54.5 -90.1,-81.85 -62.27,-56.87 -126.21,-112.04 -186.16,-171.25 -37.81,-37.36 -77.41,-73.16 -117.35,-107.4 -47.69,-40.89 -88.8,-89 -140.34,-125.629 -19.05,-13.532 -34.19,-32.539 -51.15,-49.012 -29.92,-29.059 -62.56,-55.078 -92.34,-84.41 -35.3,-34.758 -73.17,-66.918 -110.18,-99.938 -49.92,-44.539 -97.82,-91.261 -148.45,-135.129 -25.21,-21.851 -46.78,-49.761 -75.79,-66.91 -73.35,-43.371 -153.47,-38.781 -218.71,16.168 -42.94,36.16 -68.64,91.481 -68.93,147.57" /><path
         id="path20"
         style="fill:#ffffff;fill-opacity:1;fill-rule:nonzero;stroke:none"
         d="m 4327.75,5673.47 c 2.72,-56.88 -24.4,-122.1 -64.75,-181.62 -18.37,-27.11 -43.81,-49.85 -67.95,-72.56 -53.19,-50.05 -107.22,-99.22 -161.58,-148.01 -59.67,-53.55 -119.5,-107.02 -178.24,-161.48 -49.43,-45.84 -100.75,-89.67 -148.84,-137.04 -33.27,-32.77 -69.92,-62.1 -104.51,-93.57 -43.64,-39.7 -86.5,-80.28 -130.12,-120.01 -49.95,-45.49 -101.66,-89.15 -150.21,-136.08 -42.83,-41.4 -86.09,-82.58 -130.6,-121.83 -47.03,-41.47 -92.83,-84.48 -139.74,-126.04 -39.28,-34.81 -78.9,-69.84 -116.56,-106.72 -27.39,-26.82 -57.93,-50.48 -85.24,-77.06 -42.87,-41.75 -88.22,-80.66 -131.95,-121.37 -22.97,-21.38 -48.08,-41.06 -70.62,-62.61 -38.62,-36.92 -79.49,-71.37 -117.37,-109.08 -26.15,-26.04 -56.17,-48.27 -82.27,-74.09 -33.74,-33.37 -70.47,-63.32 -104.02,-96.86 -30.49,-30.5 -64.72,-57.23 -96.64,-86.35 -37.54,-34.24 -74.1,-69.56 -111.6,-103.86 -23.8,-21.77 -48.95,-42.09 -72.77,-63.85 -43.75,-39.97 -85.7,-82.03 -130.84,-120.35 -33.36,-28.32 -60.95,-62.72 -95.03,-89.49 -43.43,-34.12 -81.12,-74.25 -122.92,-109.99 -20.78,-17.77 -38.73,-40.02 -59.5,-57.27 -41.15,-34.18 -77.94,-73.02 -119.38,-106.68 -23.2,-18.86 -43.09,-41.1 -64.6,-61.58 -19.58,-18.65 -42.04,-34.62 -61.89,-53.4 -21.42,-20.27 -42.29,-41.28 -65.11,-59.86 -43.72,-35.61 -82,-77.08 -125.77,-112.87 -42.01,-34.34 -82.65,-79.23 -136.41,-96.74 -61.99,-20.19 -131.587,5.2 -179.822,45.53 -57.98,48.48 -76.492,127.47 -51.851,196.44 24.297,67.99 84.859,116.61 131.816,169.23 28.497,31.92 59.277,61.97 87.037,94.06 32.57,37.66 66.23,74.1 100.21,110.4 19.46,20.8 34.98,45.6 55.83,64.71 42.59,39.03 77.06,85.27 117.15,126.5 49.32,50.72 94.71,105.24 143,156.99 25.74,27.58 49.02,57.43 75.61,83.98 44.21,44.15 85.44,90.98 127.06,137.38 23.48,26.17 47.36,52.03 70.73,78.33 41.77,47.01 84.44,93.23 126.94,139.59 54.63,59.62 109.82,118.72 164.11,178.64 55.2,60.93 110.28,121.95 166.29,182.16 66.93,71.95 131.6,145.98 197.77,218.63 45.69,50.16 92.53,99.28 138.34,149.33 26.25,28.68 51.08,58.66 77.28,87.38 33.86,37.1 68.69,73.31 102.64,110.32 21.66,23.62 42.16,48.3 63.78,71.97 32.24,35.29 64.28,70.82 97.79,104.89 23.21,23.59 42.69,50.27 66.07,73.81 39.46,39.73 76.26,82.1 113.99,123.54 30.58,33.57 60.67,67.58 91.35,101.04 42.94,46.83 87.6,92.17 129.06,140.27 56.57,65.64 117.53,127.21 174.17,192.82 56.92,65.95 119.02,127.39 177.39,192.12 22.56,25.02 43.72,51.61 70.79,71.47 43.57,31.96 89.05,59.96 144.15,70.36 67.52,12.73 134.72,12.69 201.01,-2.05 35.14,-7.81 67.67,-25.51 98.33,-46.17 57.17,-38.52 102.26,-87.43 133.08,-148.77 11.46,-22.82 18.93,-47.54 25.94,-72.51 10.88,-38.73 10.33,-77.55 9.99,-134.07" /><path
         id="path22"
         style="fill:#ffffff;fill-opacity:1;fill-rule:nonzero;stroke:none"
         d="m 5914,2519.21 c 86.12,11.81 147.32,-24.56 203.23,-68.98 33.74,-26.81 64.74,-59.08 85.25,-98.27 33.28,-63.61 47.66,-129.8 33.14,-202.64 -14.79,-74.16 -51.2,-136.31 -99.65,-190.81 -34.37,-38.67 -77.06,-70.02 -116.4,-104.21 -30.88,-26.83 -63.82,-51.48 -93.06,-79.95 -24.77,-24.12 -51.93,-45.25 -78.13,-67.39 -36.94,-31.22 -75.2,-61.32 -111.85,-92.63 -39.82,-34.01 -78.1,-70.63 -117.57,-105.29 -29.81,-26.17 -59.23,-53.19 -91.04,-77.45 -23.22,-17.71 -45.59,-37.44 -67.2,-57.34 -26.55,-24.43 -55.45,-45.84 -83.46,-68.17 -25.36,-20.22 -45.03,-45.7 -70.11,-65.97 -50.97,-41.21 -99.58,-85.3 -149.45,-127.83 -29.42,-25.09 -58.54,-51.21 -87.51,-77.15 -51.4,-46.021 -104.55,-90.079 -156.88,-135.06 -34.53,-29.679 -68.89,-59.57 -103.38,-89.289 -34.36,-29.601 -69.64,-58.09 -102.97,-88.941 -17.86,-16.527 -41.17,-26.738 -64.77,-30.91 -98,-17.34 -183.85,14.812 -226.05,114.629 -16.31,38.582 -16.11,77.652 -6.51,115.332 8.99,35.289 27.66,67.48 53.77,95.289 37.59,40.04 73.29,81.82 107.74,124.81 20.45,25.53 42.99,50.03 64.47,75.03 29.13,33.89 57.67,68.51 87.22,101.86 28.34,31.99 55.55,65.08 84.56,96.56 26.13,28.35 50.49,58.35 75.73,87.54 23.74,27.45 48.1,54.38 71.32,82.27 44.54,53.46 91.93,104.45 135.54,158.78 20.28,25.27 43.01,48.87 64.21,73.62 49.63,57.97 99.75,115.52 149.75,173.18 42.25,48.73 84.76,97.24 126.86,146.09 23.36,27.1 45.91,54.89 69.22,82.03 34.48,40.17 69.72,79.69 103.88,120.14 36.96,43.77 74.85,87.01 121.69,120.1 38.91,27.49 81.95,49.69 128.82,60.18 21.93,4.91 45.87,0.84 59.59,0.84" /><path
         id="path24"
         style="fill:#ffffff;fill-opacity:1;fill-rule:nonzero;stroke:none"
         d="m 1027.72,4301.51 c -4.18,51.28 21.14,95.66 56.3,136.41 46.2,53.55 91.72,107.67 137.82,161.29 25.12,29.21 51.7,57.19 76.09,86.98 41.78,51.01 86.42,99.56 128,150.78 20.42,25.16 42.62,49.16 63.43,74.15 45.06,54.07 93.88,104.85 137.5,160.26 20.44,25.96 43.73,49.99 65.3,75.3 45.34,53.2 90.48,106.61 136.32,159.31 41.94,48.22 83.14,97.18 125.65,144.96 29.9,33.6 58.86,68.33 87.84,102.89 41.54,49.51 85.97,96.65 126.52,146.93 23.86,29.61 48.72,58.63 74.92,85.57 50.25,51.68 106.51,95.54 179.21,114.92 47.64,12.7 95.08,13.23 142.2,6.4 38.45,-5.57 74.06,-22.68 106.33,-45.96 37.04,-26.72 70.13,-57.4 98.04,-93.3 25.44,-32.73 40.02,-70.7 51.39,-110.54 7.24,-25.39 8.85,-50.65 6.87,-76.02 -4.07,-52.31 -18.29,-102.04 -43.88,-148.19 -32.38,-58.43 -77.02,-106.04 -128.25,-148.38 -49.31,-40.76 -97.39,-83 -145.8,-124.83 -61.29,-52.97 -121.05,-107.82 -183.95,-158.78 -49.8,-40.34 -96.77,-83.89 -146.97,-123.79 -49.35,-39.23 -93.18,-85.38 -142.49,-124.65 -46.06,-36.68 -87.86,-78.12 -134.49,-114.1 -32.87,-25.38 -61.71,-55.97 -94.51,-81.47 -33.08,-25.71 -63.35,-54.68 -95.57,-81.31 -27.92,-23.08 -56.05,-46.64 -83.04,-71.24 -48.78,-44.48 -101.38,-84.76 -150.42,-128.96 -34.5,-31.11 -69.98,-61.02 -105.36,-91.03 -27.11,-23 -51.98,-49.04 -86.41,-62.81 -75.83,-30.34 -176.18,-6.96 -224.02,62.08 -27.86,40.19 -35.54,64.29 -34.57,117.13" /></g></g></svg>